<?xml version="1.0" encoding="UTF-8" standalone="no"?>
<!-- Created with Inkscape (http://www.inkscape.org/) -->

<svg
   xmlns:dc="http://purl.org/dc/elements/1.1/"
   xmlns:cc="http://creativecommons.org/ns#"
   xmlns:rdf="http://www.w3.org/1999/02/22-rdf-syntax-ns#"
   xmlns:svg="http://www.w3.org/2000/svg"
   xmlns="http://www.w3.org/2000/svg"
   xmlns:sodipodi="http://sodipodi.sourceforge.net/DTD/sodipodi-0.dtd"
   xmlns:inkscape="http://www.inkscape.org/namespaces/inkscape"
   version="1.1"
   width="44"
   height="44"
   viewBox="0 0 44 44"
   id="svg2"
   inkscape:version="0.48.3.1 r9886"
   sodipodi:docname="Switcher.svg">
  <sodipodi:namedview
     pagecolor="#ffffff"
     bordercolor="#666666"
     borderopacity="1"
     objecttolerance="10"
     gridtolerance="10"
     guidetolerance="10"
     inkscape:pageopacity="0"
     inkscape:pageshadow="2"
     inkscape:window-width="1600"
     inkscape:window-height="848"
     id="namedview24"
     showgrid="false"
     inkscape:zoom="8"
     inkscape:cx="16.8984"
     inkscape:cy="7.9704233"
     inkscape:window-x="-8"
     inkscape:window-y="-8"
     inkscape:window-maximized="1"
     inkscape:current-layer="g3">
    <inkscape:grid
       type="xygrid"
       id="grid3967"
       empspacing="5"
       visible="true"
       enabled="true"
       snapvisiblegridlinesonly="true" />
  </sodipodi:namedview>
  <metadata
     id="metadata18">
    <rdf:RDF>
      <cc:Work
         rdf:about="">
        <dc:format>image/svg+xml</dc:format>
        <dc:type
           rdf:resource="http://purl.org/dc/dcmitype/StillImage" />
        <dc:title />
      </cc:Work>
    </rdf:RDF>
  </metadata>
  <defs
     id="defs16" />
  <g
     transform="matrix(0.18308778,0,0,0.18308778,6.6100946,3.2385199)"
     id="g3">
    <g
       id="g3289">
      <path
         inkscape:connector-curvature="0"
         style="fill:#006225"
         id="path5-1-4"
         d="m 42.140901,-1.0538247 c -2.116415,-0.349457 -4.183615,-0.434113 -6.181903,-0.276611 -4.766234,0.312495 -9.536017,0.64848999 -14.303055,0.97650299 C 9.1936824,0.64226329 -0.27605961,10.897538 -0.27605961,25.062779 l 0,167.049381 13.96836361,12.99383 28.419063,-206.1489887 0.02945,-0.01084 z" />
      <path
         inkscape:connector-curvature="0"
         style="fill:#80c342"
         id="path7-7-0"
         d="m 171.39992,156.09406 c 0,12.30477 -7.62894,23.69406 -17.29557,25.36751 L 13.73168,205.04732 V 24.118167 c 0,-16.4588477 13.131637,-27.7595359 28.438754,-25.2296777 L 171.41961,20.072361 V 156.11377 z" />
    </g>
    <g
       id="g3261"
       transform="matrix(0.88533727,0,0,0.97427248,-117.74805,54.892855)">
      <path
         inkscape:connector-curvature="0"
         style="fill:#006225"
         id="path19-1"
         d="m 208.85039,85.919972 c 0.71268,0 1.47293,-0.0453 2.28163,-0.12978 h -4.26023 c 0.59552,0.0876 1.28001,0.12978 1.9786,0.12978 z" />
      <path
         transform="matrix(11.02399,0,0,12.077813,-15.594664,-349.21632)"
         d="m 24,30 c 0.006,-0.0015 0.601204,-0.103779 0.607338,-0.104365 0.0061,-5.87e-4 0.609957,-0.01301 0.61611,-0.01268 0.0062,3.34e-4 0.605083,0.07804 0.611118,0.07929 0.006,0.0012 0.586694,0.167351 0.592475,0.169484 0.0058,0.0021 0.555199,0.252924 0.560598,0.255895 0.0054,0.003 0.511301,0.332847 0.516197,0.336589 0.0049,0.0037 0.455982,0.405336 0.460266,0.409766 0.0043,0.0044 0.390476,0.468768 0.394052,0.473787 0.0036,0.005 0.316249,0.521731 0.319037,0.527227 0.0028,0.0055 0.234957,0.563037 0.236894,0.568887 0.0019,0.0059 0.148417,0.591767 0.14946,0.597841 0.001,0.0061 0.05856,0.607278 0.05869,0.613439 1.27e-4,0.0062 -0.0326,0.609223 -0.0334,0.615334 -7.93e-4,0.0061 -0.12304,0.59756 -0.124734,0.603485 -0.0017,0.0059 -0.210727,0.572547 -0.213286,0.578153 -0.0026,0.0056 -0.293707,0.534745 -0.297073,0.539907 -0.0034,0.0052 -0.370127,0.484997 -0.374224,0.4896 -0.0041,0.0046 -0.438277,0.424416 -0.443015,0.428357 -0.0047,0.0039 -0.496638,0.354354 -0.501911,0.357544 -0.0053,0.0032 -0.543904,0.276376 -0.549593,0.278745 C 26.579311,37.80865 26.005978,37.998505 26,38 c -0.006,0.0015 -0.601204,0.103779 -0.607338,0.104365 -0.0061,5.87e-4 -0.609957,0.01301 -0.61611,0.01268 -0.0062,-3.34e-4 -0.605083,-0.07804 -0.611118,-0.07929 -0.006,-0.0012 -0.586694,-0.167351 -0.592476,-0.169484 -0.0058,-0.0021 -0.555198,-0.252924 -0.560597,-0.255895 -0.0054,-0.003 -0.511301,-0.332847 -0.516197,-0.336589 -0.0049,-0.0037 -0.455982,-0.405335 -0.460266,-0.409766 -0.0043,-0.0044 -0.390477,-0.468768 -0.394052,-0.473787 -0.0036,-0.005 -0.316249,-0.52173 -0.319037,-0.527226 -0.0028,-0.0055 -0.234957,-0.563038 -0.236894,-0.568888 -0.0019,-0.0059 -0.148417,-0.591767 -0.14946,-0.597841 -0.001,-0.0061 -0.05856,-0.607278 -0.05869,-0.613439 -1.27e-4,-0.0062 0.0326,-0.609223 0.0334,-0.615334 7.93e-4,-0.0061 0.12304,-0.59756 0.124735,-0.603485 0.0017,-0.0059 0.210726,-0.572547 0.213285,-0.578153 0.0026,-0.0056 0.293707,-0.534745 0.297073,-0.539907 0.0034,-0.0052 0.370126,-0.484997 0.374224,-0.4896 0.0041,-0.0046 0.438277,-0.424416 0.443015,-0.428357 0.0047,-0.0039 0.496638,-0.354354 0.501911,-0.357544 0.0053,-0.0032 0.543904,-0.276376 0.549593,-0.278745 C 23.420689,30.19135 23.994022,30.001495 24,30 z"
         inkscape:randomized="0"
         inkscape:rounded="0.01"
         inkscape:flatsided="false"
         sodipodi:arg2="-1.6661753"
         sodipodi:arg1="-1.815775"
         sodipodi:r2="4.1231055"
         sodipodi:r1="4.1231055"
         sodipodi:cy="34"
         sodipodi:cx="25"
         sodipodi:sides="21"
         id="path3971-5-0-6"
         style="fill:#333333;fill-opacity:1;stroke:none"
         sodipodi:type="star" />
      <rect
         y="7.1663723"
         x="251.16664"
         height="108.34923"
         width="19.040237"
         id="rect3973-2-9-8"
         style="fill:#333333;fill-opacity:1;stroke:none" />
      <rect
         transform="matrix(0.67492129,0.73788972,-0.6872487,0.72642221,0,0)"
         y="-203.37019"
         x="222.08386"
         height="104.5743"
         width="19.779144"
         id="rect3973-2-1-4-57"
         style="fill:#333333;fill-opacity:1;stroke:none" />
      <rect
         transform="matrix(0.00113416,0.99999936,-0.99999914,0.00131066,0,0)"
         y="-310.3855"
         x="51.887497"
         height="100.79039"
         width="20.468172"
         id="rect3973-2-1-7-8-6"
         style="fill:#333333;fill-opacity:1;stroke:none" />
      <rect
         transform="matrix(0.68280007,-0.73060528,0.67940762,0.73376106,0,0)"
         y="180.4628"
         x="140.33871"
         height="104.65561"
         width="19.763788"
         id="rect3973-2-4-8-18"
         style="fill:#333333;fill-opacity:1;stroke:none" />
      <path
         transform="matrix(11.02399,0,0,12.077813,-11.094324,-349.21632)"
         d="m 24,30 c 0.006,-0.0015 0.601204,-0.103779 0.607338,-0.104365 0.0061,-5.87e-4 0.609957,-0.01301 0.61611,-0.01268 0.0062,3.34e-4 0.605083,0.07804 0.611118,0.07929 0.006,0.0012 0.586694,0.167351 0.592475,0.169484 0.0058,0.0021 0.555199,0.252924 0.560598,0.255895 0.0054,0.003 0.511301,0.332847 0.516197,0.336589 0.0049,0.0037 0.455982,0.405336 0.460266,0.409766 0.0043,0.0044 0.390476,0.468768 0.394052,0.473787 0.0036,0.005 0.316249,0.521731 0.319037,0.527227 0.0028,0.0055 0.234957,0.563037 0.236894,0.568887 0.0019,0.0059 0.148417,0.591767 0.14946,0.597841 0.001,0.0061 0.05856,0.607278 0.05869,0.613439 1.27e-4,0.0062 -0.0326,0.609223 -0.0334,0.615334 -7.93e-4,0.0061 -0.12304,0.59756 -0.124734,0.603485 -0.0017,0.0059 -0.210727,0.572547 -0.213286,0.578153 -0.0026,0.0056 -0.293707,0.534745 -0.297073,0.539907 -0.0034,0.0052 -0.370127,0.484997 -0.374224,0.4896 -0.0041,0.0046 -0.438277,0.424416 -0.443015,0.428357 -0.0047,0.0039 -0.496638,0.354354 -0.501911,0.357544 -0.0053,0.0032 -0.543904,0.276376 -0.549593,0.278745 C 26.579311,37.80865 26.005978,37.998505 26,38 c -0.006,0.0015 -0.601204,0.103779 -0.607338,0.104365 -0.0061,5.87e-4 -0.609957,0.01301 -0.61611,0.01268 -0.0062,-3.34e-4 -0.605083,-0.07804 -0.611118,-0.07929 -0.006,-0.0012 -0.586694,-0.167351 -0.592476,-0.169484 -0.0058,-0.0021 -0.555198,-0.252924 -0.560597,-0.255895 -0.0054,-0.003 -0.511301,-0.332847 -0.516197,-0.336589 -0.0049,-0.0037 -0.455982,-0.405335 -0.460266,-0.409766 -0.0043,-0.0044 -0.390477,-0.468768 -0.394052,-0.473787 -0.0036,-0.005 -0.316249,-0.52173 -0.319037,-0.527226 -0.0028,-0.0055 -0.234957,-0.563038 -0.236894,-0.568888 -0.0019,-0.0059 -0.148417,-0.591767 -0.14946,-0.597841 -0.001,-0.0061 -0.05856,-0.607278 -0.05869,-0.613439 -1.27e-4,-0.0062 0.0326,-0.609223 0.0334,-0.615334 7.93e-4,-0.0061 0.12304,-0.59756 0.124735,-0.603485 0.0017,-0.0059 0.210726,-0.572547 0.213285,-0.578153 0.0026,-0.0056 0.293707,-0.534745 0.297073,-0.539907 0.0034,-0.0052 0.370126,-0.484997 0.374224,-0.4896 0.0041,-0.0046 0.438277,-0.424416 0.443015,-0.428357 0.0047,-0.0039 0.496638,-0.354354 0.501911,-0.357544 0.0053,-0.0032 0.543904,-0.276376 0.549593,-0.278745 C 23.420689,30.19135 23.994022,30.001495 24,30 z"
         inkscape:randomized="0"
         inkscape:rounded="0.01"
         inkscape:flatsided="false"
         sodipodi:arg2="-1.6661753"
         sodipodi:arg1="-1.815775"
         sodipodi:r2="4.1231055"
         sodipodi:r1="4.1231055"
         sodipodi:cy="34"
         sodipodi:cx="25"
         sodipodi:sides="21"
         id="path3971-5-0-2-9"
         style="fill:#808080;fill-opacity:1;stroke:none"
         sodipodi:type="star" />
      <rect
         y="7.1663647"
         x="255.66698"
         height="108.34923"
         width="19.040237"
         id="rect3973-2-9-4-2"
         style="fill:#808080;fill-opacity:1;stroke:none" />
      <rect
         transform="matrix(0.67492129,0.73788972,-0.6872487,0.72642221,0,0)"
         y="-206.69963"
         x="225.36156"
         height="104.5743"
         width="19.779144"
         id="rect3973-2-1-4-5-7"
         style="fill:#808080;fill-opacity:1;stroke:none" />
      <rect
         transform="matrix(0.00113416,0.99999936,-0.99999914,0.00131066,0,0)"
         y="-314.88583"
         x="51.893387"
         height="100.79039"
         width="20.468172"
         id="rect3973-2-1-7-8-5-9"
         style="fill:#808080;fill-opacity:1;stroke:none" />
      <rect
         transform="matrix(0.68280007,-0.73060528,0.67940762,0.73376106,0,0)"
         y="183.75937"
         x="143.64954"
         height="104.65561"
         width="19.763788"
         id="rect3973-2-4-8-1-5"
         style="fill:#808080;fill-opacity:1;stroke:none" />
      <path
         transform="matrix(2.2028408,0,0,2.4148094,209.48985,-20.942559)"
         d="m 24,30 c 0.006,-0.0015 0.601204,-0.103779 0.607338,-0.104365 0.0061,-5.87e-4 0.609957,-0.01301 0.61611,-0.01268 0.0062,3.34e-4 0.605083,0.07804 0.611118,0.07929 0.006,0.0012 0.586694,0.167351 0.592475,0.169484 0.0058,0.0021 0.555199,0.252924 0.560598,0.255895 0.0054,0.003 0.511301,0.332847 0.516197,0.336589 0.0049,0.0037 0.455982,0.405336 0.460266,0.409766 0.0043,0.0044 0.390476,0.468768 0.394052,0.473787 0.0036,0.005 0.316249,0.521731 0.319037,0.527227 0.0028,0.0055 0.234957,0.563037 0.236894,0.568887 0.0019,0.0059 0.148417,0.591767 0.14946,0.597841 0.001,0.0061 0.05856,0.607278 0.05869,0.613439 1.27e-4,0.0062 -0.0326,0.609223 -0.0334,0.615334 -7.93e-4,0.0061 -0.12304,0.59756 -0.124734,0.603485 -0.0017,0.0059 -0.210727,0.572547 -0.213286,0.578153 -0.0026,0.0056 -0.293707,0.534745 -0.297073,0.539907 -0.0034,0.0052 -0.370127,0.484997 -0.374224,0.4896 -0.0041,0.0046 -0.438277,0.424416 -0.443015,0.428357 -0.0047,0.0039 -0.496638,0.354354 -0.501911,0.357544 -0.0053,0.0032 -0.543904,0.276376 -0.549593,0.278745 C 26.579311,37.80865 26.005978,37.998505 26,38 c -0.006,0.0015 -0.601204,0.103779 -0.607338,0.104365 -0.0061,5.87e-4 -0.609957,0.01301 -0.61611,0.01268 -0.0062,-3.34e-4 -0.605083,-0.07804 -0.611118,-0.07929 -0.006,-0.0012 -0.586694,-0.167351 -0.592476,-0.169484 -0.0058,-0.0021 -0.555198,-0.252924 -0.560597,-0.255895 -0.0054,-0.003 -0.511301,-0.332847 -0.516197,-0.336589 -0.0049,-0.0037 -0.455982,-0.405335 -0.460266,-0.409766 -0.0043,-0.0044 -0.390477,-0.468768 -0.394052,-0.473787 -0.0036,-0.005 -0.316249,-0.52173 -0.319037,-0.527226 -0.0028,-0.0055 -0.234957,-0.563038 -0.236894,-0.568888 -0.0019,-0.0059 -0.148417,-0.591767 -0.14946,-0.597841 -0.001,-0.0061 -0.05856,-0.607278 -0.05869,-0.613439 -1.27e-4,-0.0062 0.0326,-0.609223 0.0334,-0.615334 7.93e-4,-0.0061 0.12304,-0.59756 0.124735,-0.603485 0.0017,-0.0059 0.210726,-0.572547 0.213285,-0.578153 0.0026,-0.0056 0.293707,-0.534745 0.297073,-0.539907 0.0034,-0.0052 0.370126,-0.484997 0.374224,-0.4896 0.0041,-0.0046 0.438277,-0.424416 0.443015,-0.428357 0.0047,-0.0039 0.496638,-0.354354 0.501911,-0.357544 0.0053,-0.0032 0.543904,-0.276376 0.549593,-0.278745 C 23.420689,30.19135 23.994022,30.001495 24,30 z"
         inkscape:randomized="0"
         inkscape:rounded="0.01"
         inkscape:flatsided="false"
         sodipodi:arg2="-1.6661753"
         sodipodi:arg1="-1.815775"
         sodipodi:r2="4.1231055"
         sodipodi:r1="4.1231055"
         sodipodi:cy="34"
         sodipodi:cx="25"
         sodipodi:sides="21"
         id="path3971-5-0-2-7-4"
         style="fill:#333333;fill-opacity:1;stroke:none"
         sodipodi:type="star" />
    </g>
    <g
       id="g3275"
       transform="matrix(0.61958566,0,0,0.69455719,-187.43296,-39.151263)">
      <path
         inkscape:connector-curvature="0"
         style="fill:#006225"
         id="path19-3"
         d="m 339.54056,166.56624 c 0.71268,0 1.47293,-0.0453 2.28164,-0.12977 h -4.26024 c 0.59552,0.0876 1.28001,0.12977 1.9786,0.12977 z" />
      <path
         transform="matrix(11.02399,0,0,12.077813,115.09551,-268.57005)"
         d="m 24,30 c 0.006,-0.0015 0.601204,-0.103779 0.607338,-0.104365 0.0061,-5.87e-4 0.609957,-0.01301 0.61611,-0.01268 0.0062,3.34e-4 0.605083,0.07804 0.611118,0.07929 0.006,0.0012 0.586694,0.167351 0.592475,0.169484 0.0058,0.0021 0.555199,0.252924 0.560598,0.255895 0.0054,0.003 0.511301,0.332847 0.516197,0.336589 0.0049,0.0037 0.455982,0.405336 0.460266,0.409766 0.0043,0.0044 0.390476,0.468768 0.394052,0.473787 0.0036,0.005 0.316249,0.521731 0.319037,0.527227 0.0028,0.0055 0.234957,0.563037 0.236894,0.568887 0.0019,0.0059 0.148417,0.591767 0.14946,0.597841 0.001,0.0061 0.05856,0.607278 0.05869,0.613439 1.27e-4,0.0062 -0.0326,0.609223 -0.0334,0.615334 -7.93e-4,0.0061 -0.12304,0.59756 -0.124734,0.603485 -0.0017,0.0059 -0.210727,0.572547 -0.213286,0.578153 -0.0026,0.0056 -0.293707,0.534745 -0.297073,0.539907 -0.0034,0.0052 -0.370127,0.484997 -0.374224,0.4896 -0.0041,0.0046 -0.438277,0.424416 -0.443015,0.428357 -0.0047,0.0039 -0.496638,0.354354 -0.501911,0.357544 -0.0053,0.0032 -0.543904,0.276376 -0.549593,0.278745 C 26.579311,37.80865 26.005978,37.998505 26,38 c -0.006,0.0015 -0.601204,0.103779 -0.607338,0.104365 -0.0061,5.87e-4 -0.609957,0.01301 -0.61611,0.01268 -0.0062,-3.34e-4 -0.605083,-0.07804 -0.611118,-0.07929 -0.006,-0.0012 -0.586694,-0.167351 -0.592476,-0.169484 -0.0058,-0.0021 -0.555198,-0.252924 -0.560597,-0.255895 -0.0054,-0.003 -0.511301,-0.332847 -0.516197,-0.336589 -0.0049,-0.0037 -0.455982,-0.405335 -0.460266,-0.409766 -0.0043,-0.0044 -0.390477,-0.468768 -0.394052,-0.473787 -0.0036,-0.005 -0.316249,-0.52173 -0.319037,-0.527226 -0.0028,-0.0055 -0.234957,-0.563038 -0.236894,-0.568888 -0.0019,-0.0059 -0.148417,-0.591767 -0.14946,-0.597841 -0.001,-0.0061 -0.05856,-0.607278 -0.05869,-0.613439 -1.27e-4,-0.0062 0.0326,-0.609223 0.0334,-0.615334 7.93e-4,-0.0061 0.12304,-0.59756 0.124735,-0.603485 0.0017,-0.0059 0.210726,-0.572547 0.213285,-0.578153 0.0026,-0.0056 0.293707,-0.534745 0.297073,-0.539907 0.0034,-0.0052 0.370126,-0.484997 0.374224,-0.4896 0.0041,-0.0046 0.438277,-0.424416 0.443015,-0.428357 0.0047,-0.0039 0.496638,-0.354354 0.501911,-0.357544 0.0053,-0.0032 0.543904,-0.276376 0.549593,-0.278745 C 23.420689,30.19135 23.994022,30.001495 24,30 z"
         inkscape:randomized="0"
         inkscape:rounded="0.01"
         inkscape:flatsided="false"
         sodipodi:arg2="-1.6661753"
         sodipodi:arg1="-1.815775"
         sodipodi:r2="4.1231055"
         sodipodi:r1="4.1231055"
         sodipodi:cy="34"
         sodipodi:cx="25"
         sodipodi:sides="21"
         id="path3971-5-0-1"
         style="fill:#333333;fill-opacity:1;stroke:none"
         sodipodi:type="star" />
      <rect
         y="-132.36121"
         x="402.42419"
         height="107.40926"
         width="19.216118"
         id="rect3973-2-9-2"
         style="fill:#333333;fill-opacity:1;stroke:none"
         transform="matrix(0.85830033,0.51314769,-0.48626863,0.87380937,0,0)" />
      <rect
         transform="matrix(0.00113416,0.99999936,-0.99999914,0.00131066,0,0)"
         y="-440.9841"
         x="132.705"
         height="100.79039"
         width="20.468172"
         id="rect3973-2-1-7-8-3"
         style="fill:#333333;fill-opacity:1;stroke:none" />
      <rect
         transform="matrix(0.8179641,-0.57526927,0.51731431,0.85579548,0,0)"
         y="289.00491"
         x="251.77316"
         height="105.39293"
         width="19.621309"
         id="rect3973-2-4-8-4"
         style="fill:#333333;fill-opacity:1;stroke:none"
         inkscape:transform-center-x="0.2445602"
         inkscape:transform-center-y="-0.050883396" />
      <path
         transform="matrix(11.02399,0,0,12.077813,119.59585,-268.57005)"
         d="m 24,30 c 0.006,-0.0015 0.601204,-0.103779 0.607338,-0.104365 0.0061,-5.87e-4 0.609957,-0.01301 0.61611,-0.01268 0.0062,3.34e-4 0.605083,0.07804 0.611118,0.07929 0.006,0.0012 0.586694,0.167351 0.592475,0.169484 0.0058,0.0021 0.555199,0.252924 0.560598,0.255895 0.0054,0.003 0.511301,0.332847 0.516197,0.336589 0.0049,0.0037 0.455982,0.405336 0.460266,0.409766 0.0043,0.0044 0.390476,0.468768 0.394052,0.473787 0.0036,0.005 0.316249,0.521731 0.319037,0.527227 0.0028,0.0055 0.234957,0.563037 0.236894,0.568887 0.0019,0.0059 0.148417,0.591767 0.14946,0.597841 0.001,0.0061 0.05856,0.607278 0.05869,0.613439 1.27e-4,0.0062 -0.0326,0.609223 -0.0334,0.615334 -7.93e-4,0.0061 -0.12304,0.59756 -0.124734,0.603485 -0.0017,0.0059 -0.210727,0.572547 -0.213286,0.578153 -0.0026,0.0056 -0.293707,0.534745 -0.297073,0.539907 -0.0034,0.0052 -0.370127,0.484997 -0.374224,0.4896 -0.0041,0.0046 -0.438277,0.424416 -0.443015,0.428357 -0.0047,0.0039 -0.496638,0.354354 -0.501911,0.357544 -0.0053,0.0032 -0.543904,0.276376 -0.549593,0.278745 C 26.579311,37.80865 26.005978,37.998505 26,38 c -0.006,0.0015 -0.601204,0.103779 -0.607338,0.104365 -0.0061,5.87e-4 -0.609957,0.01301 -0.61611,0.01268 -0.0062,-3.34e-4 -0.605083,-0.07804 -0.611118,-0.07929 -0.006,-0.0012 -0.586694,-0.167351 -0.592476,-0.169484 -0.0058,-0.0021 -0.555198,-0.252924 -0.560597,-0.255895 -0.0054,-0.003 -0.511301,-0.332847 -0.516197,-0.336589 -0.0049,-0.0037 -0.455982,-0.405335 -0.460266,-0.409766 -0.0043,-0.0044 -0.390477,-0.468768 -0.394052,-0.473787 -0.0036,-0.005 -0.316249,-0.52173 -0.319037,-0.527226 -0.0028,-0.0055 -0.234957,-0.563038 -0.236894,-0.568888 -0.0019,-0.0059 -0.148417,-0.591767 -0.14946,-0.597841 -0.001,-0.0061 -0.05856,-0.607278 -0.05869,-0.613439 -1.27e-4,-0.0062 0.0326,-0.609223 0.0334,-0.615334 7.93e-4,-0.0061 0.12304,-0.59756 0.124735,-0.603485 0.0017,-0.0059 0.210726,-0.572547 0.213285,-0.578153 0.0026,-0.0056 0.293707,-0.534745 0.297073,-0.539907 0.0034,-0.0052 0.370126,-0.484997 0.374224,-0.4896 0.0041,-0.0046 0.438277,-0.424416 0.443015,-0.428357 0.0047,-0.0039 0.496638,-0.354354 0.501911,-0.357544 0.0053,-0.0032 0.543904,-0.276376 0.549593,-0.278745 C 23.420689,30.19135 23.994022,30.001495 24,30 z"
         inkscape:randomized="0"
         inkscape:rounded="0.01"
         inkscape:flatsided="false"
         sodipodi:arg2="-1.6661753"
         sodipodi:arg1="-1.815775"
         sodipodi:r2="4.1231055"
         sodipodi:r1="4.1231055"
         sodipodi:cy="34"
         sodipodi:cx="25"
         sodipodi:sides="21"
         id="path3971-5-0-2-1"
         style="fill:#808080;fill-opacity:1;stroke:none"
         sodipodi:type="star" />
      <rect
         y="-134.8907"
         x="407.00888"
         height="107.40926"
         width="19.216118"
         id="rect3973-2-9-4-1"
         style="fill:#808080;fill-opacity:1;stroke:none"
         transform="matrix(0.85830033,0.51314769,-0.48626863,0.87380937,0,0)" />
      <rect
         transform="matrix(0.00113416,0.99999936,-0.99999914,0.00131066,0,0)"
         y="-445.48444"
         x="132.71089"
         height="100.79039"
         width="20.468172"
         id="rect3973-2-1-7-8-5-8"
         style="fill:#808080;fill-opacity:1;stroke:none" />
      <rect
         transform="matrix(0.8179641,-0.57526927,0.51731431,0.85579548,0,0)"
         y="291.56854"
         x="255.71042"
         height="105.39293"
         width="19.621309"
         id="rect3973-2-4-8-1-7"
         style="fill:#808080;fill-opacity:1;stroke:none"
         inkscape:transform-center-x="-0.2445602"
         inkscape:transform-center-y="0.050883396" />
      <path
         transform="matrix(2.2028408,0,0,2.4148094,340.18003,59.703719)"
         d="m 24,30 c 0.006,-0.0015 0.601204,-0.103779 0.607338,-0.104365 0.0061,-5.87e-4 0.609957,-0.01301 0.61611,-0.01268 0.0062,3.34e-4 0.605083,0.07804 0.611118,0.07929 0.006,0.0012 0.586694,0.167351 0.592475,0.169484 0.0058,0.0021 0.555199,0.252924 0.560598,0.255895 0.0054,0.003 0.511301,0.332847 0.516197,0.336589 0.0049,0.0037 0.455982,0.405336 0.460266,0.409766 0.0043,0.0044 0.390476,0.468768 0.394052,0.473787 0.0036,0.005 0.316249,0.521731 0.319037,0.527227 0.0028,0.0055 0.234957,0.563037 0.236894,0.568887 0.0019,0.0059 0.148417,0.591767 0.14946,0.597841 0.001,0.0061 0.05856,0.607278 0.05869,0.613439 1.27e-4,0.0062 -0.0326,0.609223 -0.0334,0.615334 -7.93e-4,0.0061 -0.12304,0.59756 -0.124734,0.603485 -0.0017,0.0059 -0.210727,0.572547 -0.213286,0.578153 -0.0026,0.0056 -0.293707,0.534745 -0.297073,0.539907 -0.0034,0.0052 -0.370127,0.484997 -0.374224,0.4896 -0.0041,0.0046 -0.438277,0.424416 -0.443015,0.428357 -0.0047,0.0039 -0.496638,0.354354 -0.501911,0.357544 -0.0053,0.0032 -0.543904,0.276376 -0.549593,0.278745 C 26.579311,37.80865 26.005978,37.998505 26,38 c -0.006,0.0015 -0.601204,0.103779 -0.607338,0.104365 -0.0061,5.87e-4 -0.609957,0.01301 -0.61611,0.01268 -0.0062,-3.34e-4 -0.605083,-0.07804 -0.611118,-0.07929 -0.006,-0.0012 -0.586694,-0.167351 -0.592476,-0.169484 -0.0058,-0.0021 -0.555198,-0.252924 -0.560597,-0.255895 -0.0054,-0.003 -0.511301,-0.332847 -0.516197,-0.336589 -0.0049,-0.0037 -0.455982,-0.405335 -0.460266,-0.409766 -0.0043,-0.0044 -0.390477,-0.468768 -0.394052,-0.473787 -0.0036,-0.005 -0.316249,-0.52173 -0.319037,-0.527226 -0.0028,-0.0055 -0.234957,-0.563038 -0.236894,-0.568888 -0.0019,-0.0059 -0.148417,-0.591767 -0.14946,-0.597841 -0.001,-0.0061 -0.05856,-0.607278 -0.05869,-0.613439 -1.27e-4,-0.0062 0.0326,-0.609223 0.0334,-0.615334 7.93e-4,-0.0061 0.12304,-0.59756 0.124735,-0.603485 0.0017,-0.0059 0.210726,-0.572547 0.213285,-0.578153 0.0026,-0.0056 0.293707,-0.534745 0.297073,-0.539907 0.0034,-0.0052 0.370126,-0.484997 0.374224,-0.4896 0.0041,-0.0046 0.438277,-0.424416 0.443015,-0.428357 0.0047,-0.0039 0.496638,-0.354354 0.501911,-0.357544 0.0053,-0.0032 0.543904,-0.276376 0.549593,-0.278745 C 23.420689,30.19135 23.994022,30.001495 24,30 z"
         inkscape:randomized="0"
         inkscape:rounded="0.01"
         inkscape:flatsided="false"
         sodipodi:arg2="-1.6661753"
         sodipodi:arg1="-1.815775"
         sodipodi:r2="4.1231055"
         sodipodi:r1="4.1231055"
         sodipodi:cy="34"
         sodipodi:cx="25"
         sodipodi:sides="21"
         id="path3971-5-0-2-7-42"
         style="fill:#333333;fill-opacity:1;stroke:none"
         sodipodi:type="star" />
    </g>
  </g>
</svg>
